P3
30 30
255
0 0 128 
2 0 128 
5 0 128 
7 0 128 
10 0 128 
12 0 128 
15 0 128 
18 0 128 
20 0 128 
23 0 128 
25 0 128 
28 0 128 
30 0 128 
33 0 128 
36 0 128 
38 0 128 
41 0 128 
43 0 128 
46 0 128 
48 0 128 
51 0 128 
54 0 128 
56 0 128 
59 0 128 
61 0 128 
64 0 128 
66 0 128 
69 0 128 
72 0 128 
74 0 128 
0 2 128 
2 2 128 
5 2 128 
7 2 128 
10 2 128 
12 2 128 
15 2 128 
18 2 128 
20 2 128 
23 2 128 
25 2 128 
28 2 128 
30 2 128 
33 2 128 
36 2 128 
38 2 128 
41 2 128 
43 2 128 
46 2 128 
48 2 128 
51 2 128 
54 2 128 
56 2 128 
59 2 128 
61 2 128 
64 2 128 
66 2 128 
69 2 128 
72 2 128 
74 2 128 
0 5 128 
2 5 128 
5 5 128 
7 5 128 
10 5 128 
12 5 128 
15 5 128 
18 5 128 
20 5 128 
23 5 128 
25 5 128 
28 5 128 
30 5 128 
33 5 128 
36 5 128 
38 5 128 
41 5 128 
43 5 128 
46 5 128 
48 5 128 
51 5 128 
54 5 128 
56 5 128 
59 5 128 
61 5 128 
64 5 128 
66 5 128 
69 5 128 
72 5 128 
74 5 128 
0 7 128 
2 7 128 
5 7 128 
7 7 128 
10 7 128 
12 7 128 
15 7 128 
18 7 128 
20 7 128 
23 7 128 
25 7 128 
28 7 128 
30 7 128 
33 7 128 
36 7 128 
38 7 128 
41 7 128 
43 7 128 
46 7 128 
48 7 128 
51 7 128 
54 7 128 
56 7 128 
59 7 128 
61 7 128 
64 7 128 
66 7 128 
69 7 128 
72 7 128 
74 7 128 
0 10 128 
2 10 128 
5 10 128 
7 10 128 
10 10 128 
12 10 128 
15 10 128 
18 10 128 
20 10 128 
23 10 128 
25 10 128 
28 10 128 
30 10 128 
33 10 128 
36 10 128 
38 10 128 
41 10 128 
43 10 128 
46 10 128 
48 10 128 
51 10 128 
54 10 128 
56 10 128 
59 10 128 
61 10 128 
64 10 128 
66 10 128 
69 10 128 
72 10 128 
74 10 128 
0 12 128 
2 12 128 
5 12 128 
7 12 128 
10 12 128 
12 12 128 
15 12 128 
18 12 128 
20 12 128 
23 12 128 
25 12 128 
28 12 128 
30 12 128 
33 12 128 
36 12 128 
38 12 128 
41 12 128 
43 12 128 
46 12 128 
48 12 128 
51 12 128 
54 12 128 
56 12 128 
59 12 128 
61 12 128 
64 12 128 
66 12 128 
69 12 128 
72 12 128 
74 12 128 
0 15 128 
2 15 128 
5 15 128 
7 15 128 
10 15 128 
12 15 128 
15 15 128 
18 15 128 
20 15 128 
23 15 128 
25 15 128 
28 15 128 
30 15 128 
33 15 128 
36 15 128 
38 15 128 
41 15 128 
43 15 128 
46 15 128 
48 15 128 
51 15 128 
54 15 128 
56 15 128 
59 15 128 
61 15 128 
64 15 128 
66 15 128 
69 15 128 
72 15 128 
74 15 128 
0 18 128 
2 18 128 
5 18 128 
7 18 128 
10 18 128 
12 18 128 
15 18 128 
18 18 128 
20 18 128 
23 18 128 
25 18 128 
28 18 128 
30 18 128 
33 18 128 
36 18 128 
38 18 128 
41 18 128 
43 18 128 
46 18 128 
48 18 128 
51 18 128 
54 18 128 
56 18 128 
59 18 128 
61 18 128 
64 18 128 
66 18 128 
69 18 128 
72 18 128 
74 18 128 
0 20 128 
2 20 128 
5 20 128 
7 20 128 
10 20 128 
12 20 128 
15 20 128 
18 20 128 
20 20 128 
23 20 128 
25 20 128 
28 20 128 
30 20 128 
33 20 128 
36 20 128 
38 20 128 
41 20 128 
43 20 128 
46 20 128 
48 20 128 
51 20 128 
54 20 128 
56 20 128 
59 20 128 
61 20 128 
64 20 128 
66 20 128 
69 20 128 
72 20 128 
74 20 128 
0 23 128 
2 23 128 
5 23 128 
7 23 128 
10 23 128 
12 23 128 
15 23 128 
18 23 128 
20 23 128 
23 23 128 
25 23 128 
28 23 128 
30 23 128 
33 23 128 
36 23 128 
38 23 128 
41 23 128 
43 23 128 
46 23 128 
48 23 128 
51 23 128 
54 23 128 
56 23 128 
59 23 128 
61 23 128 
64 23 128 
66 23 128 
69 23 128 
72 23 128 
74 23 128 
0 25 128 
2 25 128 
5 25 128 
7 25 128 
10 25 128 
12 25 128 
15 25 128 
18 25 128 
20 25 128 
23 25 128 
25 25 128 
28 25 128 
30 25 128 
33 25 128 
36 25 128 
38 25 128 
41 25 128 
43 25 128 
46 25 128 
48 25 128 
51 25 128 
54 25 128 
56 25 128 
59 25 128 
61 25 128 
64 25 128 
66 25 128 
69 25 128 
72 25 128 
74 25 128 
0 28 128 
2 28 128 
5 28 128 
7 28 128 
10 28 128 
12 28 128 
15 28 128 
18 28 128 
20 28 128 
23 28 128 
25 28 128 
28 28 128 
30 28 128 
33 28 128 
36 28 128 
38 28 128 
41 28 128 
43 28 128 
46 28 128 
48 28 128 
51 28 128 
54 28 128 
56 28 128 
59 28 128 
61 28 128 
64 28 128 
66 28 128 
69 28 128 
72 28 128 
74 28 128 
0 30 128 
2 30 128 
5 30 128 
7 30 128 
10 30 128 
12 30 128 
15 30 128 
18 30 128 
20 30 128 
23 30 128 
25 30 128 
28 30 128 
30 30 128 
33 30 128 
36 30 128 
38 30 128 
41 30 128 
43 30 128 
46 30 128 
48 30 128 
51 30 128 
54 30 128 
56 30 128 
59 30 128 
61 30 128 
64 30 128 
66 30 128 
69 30 128 
72 30 128 
74 30 128 
0 33 128 
2 33 128 
5 33 128 
7 33 128 
10 33 128 
12 33 128 
15 33 128 
18 33 128 
20 33 128 
23 33 128 
25 33 128 
28 33 128 
30 33 128 
33 33 128 
36 33 128 
38 33 128 
41 33 128 
43 33 128 
46 33 128 
48 33 128 
51 33 128 
54 33 128 
56 33 128 
59 33 128 
61 33 128 
64 33 128 
66 33 128 
69 33 128 
72 33 128 
74 33 128 
0 36 128 
2 36 128 
5 36 128 
7 36 128 
10 36 128 
12 36 128 
15 36 128 
18 36 128 
20 36 128 
23 36 128 
25 36 128 
28 36 128 
30 36 128 
33 36 128 
36 36 128 
38 36 128 
41 36 128 
43 36 128 
46 36 128 
48 36 128 
51 36 128 
54 36 128 
56 36 128 
59 36 128 
61 36 128 
64 36 128 
66 36 128 
69 36 128 
72 36 128 
74 36 128 
0 38 128 
2 38 128 
5 38 128 
7 38 128 
10 38 128 
12 38 128 
15 38 128 
18 38 128 
20 38 128 
23 38 128 
25 38 128 
28 38 128 
30 38 128 
33 38 128 
36 38 128 
38 38 128 
41 38 128 
43 38 128 
46 38 128 
48 38 128 
51 38 128 
54 38 128 
56 38 128 
59 38 128 
61 38 128 
64 38 128 
66 38 128 
69 38 128 
72 38 128 
74 38 128 
0 41 128 
2 41 128 
5 41 128 
7 41 128 
10 41 128 
12 41 128 
15 41 128 
18 41 128 
20 41 128 
23 41 128 
25 41 128 
28 41 128 
30 41 128 
33 41 128 
36 41 128 
38 41 128 
41 41 128 
43 41 128 
46 41 128 
48 41 128 
51 41 128 
54 41 128 
56 41 128 
59 41 128 
61 41 128 
64 41 128 
66 41 128 
69 41 128 
72 41 128 
74 41 128 
0 43 128 
2 43 128 
5 43 128 
7 43 128 
10 43 128 
12 43 128 
15 43 128 
18 43 128 
20 43 128 
23 43 128 
25 43 128 
28 43 128 
30 43 128 
33 43 128 
36 43 128 
38 43 128 
41 43 128 
43 43 128 
46 43 128 
48 43 128 
51 43 128 
54 43 128 
56 43 128 
59 43 128 
61 43 128 
64 43 128 
66 43 128 
69 43 128 
72 43 128 
74 43 128 
0 46 128 
2 46 128 
5 46 128 
7 46 128 
10 46 128 
12 46 128 
15 46 128 
18 46 128 
20 46 128 
23 46 128 
25 46 128 
28 46 128 
30 46 128 
33 46 128 
36 46 128 
38 46 128 
41 46 128 
43 46 128 
46 46 128 
48 46 128 
51 46 128 
54 46 128 
56 46 128 
59 46 128 
61 46 128 
64 46 128 
66 46 128 
69 46 128 
72 46 128 
74 46 128 
0 48 128 
2 48 128 
5 48 128 
7 48 128 
10 48 128 
12 48 128 
15 48 128 
18 48 128 
20 48 128 
23 48 128 
25 48 128 
28 48 128 
30 48 128 
33 48 128 
36 48 128 
38 48 128 
41 48 128 
43 48 128 
46 48 128 
48 48 128 
51 48 128 
54 48 128 
56 48 128 
59 48 128 
61 48 128 
64 48 128 
66 48 128 
69 48 128 
72 48 128 
74 48 128 
0 51 128 
2 51 128 
5 51 128 
7 51 128 
10 51 128 
12 51 128 
15 51 128 
18 51 128 
20 51 128 
23 51 128 
25 51 128 
28 51 128 
30 51 128 
33 51 128 
36 51 128 
38 51 128 
41 51 128 
43 51 128 
46 51 128 
48 51 128 
51 51 128 
54 51 128 
56 51 128 
59 51 128 
61 51 128 
64 51 128 
66 51 128 
69 51 128 
72 51 128 
74 51 128 
0 54 128 
2 54 128 
5 54 128 
7 54 128 
10 54 128 
12 54 128 
15 54 128 
18 54 128 
20 54 128 
23 54 128 
25 54 128 
28 54 128 
30 54 128 
33 54 128 
36 54 128 
38 54 128 
41 54 128 
43 54 128 
46 54 128 
48 54 128 
51 54 128 
54 54 128 
56 54 128 
59 54 128 
61 54 128 
64 54 128 
66 54 128 
69 54 128 
72 54 128 
74 54 128 
0 56 128 
2 56 128 
5 56 128 
7 56 128 
10 56 128 
12 56 128 
15 56 128 
18 56 128 
20 56 128 
23 56 128 
25 56 128 
28 56 128 
30 56 128 
33 56 128 
36 56 128 
38 56 128 
41 56 128 
43 56 128 
46 56 128 
48 56 128 
51 56 128 
54 56 128 
56 56 128 
59 56 128 
61 56 128 
64 56 128 
66 56 128 
69 56 128 
72 56 128 
74 56 128 
0 59 128 
2 59 128 
5 59 128 
7 59 128 
10 59 128 
12 59 128 
15 59 128 
18 59 128 
20 59 128 
23 59 128 
25 59 128 
28 59 128 
30 59 128 
33 59 128 
36 59 128 
38 59 128 
41 59 128 
43 59 128 
46 59 128 
48 59 128 
51 59 128 
54 59 128 
56 59 128 
59 59 128 
61 59 128 
64 59 128 
66 59 128 
69 59 128 
72 59 128 
74 59 128 
0 61 128 
2 61 128 
5 61 128 
7 61 128 
10 61 128 
12 61 128 
15 61 128 
18 61 128 
20 61 128 
23 61 128 
25 61 128 
28 61 128 
30 61 128 
33 61 128 
36 61 128 
38 61 128 
41 61 128 
43 61 128 
46 61 128 
48 61 128 
51 61 128 
54 61 128 
56 61 128 
59 61 128 
61 61 128 
64 61 128 
66 61 128 
69 61 128 
72 61 128 
74 61 128 
0 64 128 
2 64 128 
5 64 128 
7 64 128 
10 64 128 
12 64 128 
15 64 128 
18 64 128 
20 64 128 
23 64 128 
25 64 128 
28 64 128 
30 64 128 
33 64 128 
36 64 128 
38 64 128 
41 64 128 
43 64 128 
46 64 128 
48 64 128 
51 64 128 
54 64 128 
56 64 128 
59 64 128 
61 64 128 
64 64 128 
66 64 128 
69 64 128 
72 64 128 
74 64 128 
0 66 128 
2 66 128 
5 66 128 
7 66 128 
10 66 128 
12 66 128 
15 66 128 
18 66 128 
20 66 128 
23 66 128 
25 66 128 
28 66 128 
30 66 128 
33 66 128 
36 66 128 
38 66 128 
41 66 128 
43 66 128 
46 66 128 
48 66 128 
51 66 128 
54 66 128 
56 66 128 
59 66 128 
61 66 128 
64 66 128 
66 66 128 
69 66 128 
72 66 128 
74 66 128 
0 69 128 
2 69 128 
5 69 128 
7 69 128 
10 69 128 
12 69 128 
15 69 128 
18 69 128 
20 69 128 
23 69 128 
25 69 128 
28 69 128 
30 69 128 
33 69 128 
36 69 128 
38 69 128 
41 69 128 
43 69 128 
46 69 128 
48 69 128 
51 69 128 
54 69 128 
56 69 128 
59 69 128 
61 69 128 
64 69 128 
66 69 128 
69 69 128 
72 69 128 
74 69 128 
0 72 128 
2 72 128 
5 72 128 
7 72 128 
10 72 128 
12 72 128 
15 72 128 
18 72 128 
20 72 128 
23 72 128 
25 72 128 
28 72 128 
30 72 128 
33 72 128 
36 72 128 
38 72 128 
41 72 128 
43 72 128 
46 72 128 
48 72 128 
51 72 128 
54 72 128 
56 72 128 
59 72 128 
61 72 128 
64 72 128 
66 72 128 
69 72 128 
72 72 128 
74 72 128 
0 74 128 
2 74 128 
5 74 128 
7 74 128 
10 74 128 
12 74 128 
15 74 128 
18 74 128 
20 74 128 
23 74 128 
25 74 128 
28 74 128 
30 74 128 
33 74 128 
36 74 128 
38 74 128 
41 74 128 
43 74 128 
46 74 128 
48 74 128 
51 74 128 
54 74 128 
56 74 128 
59 74 128 
61 74 128 
64 74 128 
66 74 128 
69 74 128 
72 74 128 
74 74 128 
